<?xml version="1.0" encoding="iso-8859-1"?>
<!-- Uploaded to: SVG Repo, www.svgrepo.com, Generator: SVG Repo Mixer Tools -->
<svg fill="#000000" height="800px" width="800px" version="1.1" id="Layer_1" xmlns="http://www.w3.org/2000/svg" xmlns:xlink="http://www.w3.org/1999/xlink" 
	 viewBox="0 0 486.4 486.4" xml:space="preserve">
<g>
	<g>
		<g>
			<path d="M277.623,263.737c4.545,2.624,10.355,1.066,12.977-3.477l38.243-66.242c1.26-2.182,1.601-4.775,0.949-7.208
				c-0.652-2.435-2.244-4.509-4.426-5.769l-33.227-19.183c0.316-3.47,0.476-6.96,0.476-10.433c0-3.472-0.16-6.962-0.476-10.433
				l33.227-19.183c2.182-1.26,3.774-3.335,4.426-5.769c0.652-2.433,0.311-5.026-0.949-7.208l-38.244-66.24
				c-1.26-2.182-3.335-3.774-5.769-4.426c-2.431-0.653-5.026-0.312-7.208,0.949l-33.226,19.184
				c-5.704-4.04-11.748-7.537-18.07-10.456V9.5c0-5.246-4.253-9.5-9.5-9.5h-76.488c-5.247,0-9.5,4.254-9.5,9.5v38.344
				c-6.322,2.918-12.366,6.416-18.07,10.456L79.542,39.117c-2.18-1.26-4.775-1.601-7.208-0.949
				c-2.434,0.652-4.509,2.244-5.769,4.426l-38.244,66.24c-1.26,2.182-1.601,4.775-0.949,7.208c0.652,2.435,2.244,4.509,4.426,5.769
				l33.226,19.183c-0.315,3.471-0.475,6.961-0.475,10.433c0,3.471,0.159,6.961,0.475,10.433l-33.226,19.183
				c-2.182,1.26-3.774,3.335-4.426,5.769c-0.652,2.433-0.311,5.026,0.949,7.208l38.244,66.24c2.623,4.543,8.433,6.1,12.977,3.477
				l33.226-19.183c5.702,4.04,11.748,7.537,18.07,10.456v38.343c0,5.246,4.253,9.5,9.5,9.5h76.488c5.247,0,9.5-4.253,9.501-9.5
				V255.01c6.322-2.919,12.367-6.417,18.07-10.456L277.623,263.737z M213.35,239.9c-3.634,1.429-6.023,4.936-6.023,8.841v35.112
				h-57.488h-0.001v-35.112c0-3.905-2.389-7.411-6.023-8.841c-8.784-3.454-17.006-8.212-24.437-14.138
				c-3.055-2.437-7.29-2.754-10.674-0.801l-30.435,17.571l-28.744-49.786l30.424-17.565c3.379-1.95,5.221-5.768,4.647-9.626
				c-0.694-4.661-1.046-9.415-1.046-14.129c0-4.713,0.352-9.467,1.046-14.129c0.574-3.858-1.269-7.676-4.647-9.626l-30.424-17.565
				L78.269,60.32l30.435,17.573c3.384,1.953,7.619,1.635,10.674-0.8c7.433-5.93,15.654-10.686,24.437-14.14
				c3.634-1.429,6.023-4.936,6.023-8.841V19h57.488v35.112c0,3.905,2.389,7.411,6.023,8.841c8.783,3.454,17.005,8.212,24.437,14.139
				c3.056,2.437,7.29,2.755,10.674,0.801l30.435-17.573l28.745,49.786l-30.424,17.565c-3.379,1.95-5.221,5.769-4.646,9.627
				c0.693,4.66,1.046,9.413,1.046,14.128c0,4.714-0.352,9.468-1.046,14.128c-0.575,3.858,1.267,7.677,4.646,9.627l30.424,17.565
				l-28.744,49.786l-30.435-17.571c-3.383-1.953-7.619-1.635-10.674,0.801C230.356,231.689,222.134,236.446,213.35,239.9z"/>
			<path d="M178.582,102.051c-27.226,0-49.376,22.15-49.376,49.376s22.15,49.376,49.376,49.376c27.226,0,49.376-22.15,49.376-49.376
				S205.808,102.051,178.582,102.051z M178.582,181.803c-16.749,0-30.376-13.627-30.376-30.376
				c0-16.749,13.627-30.376,30.376-30.376c16.75,0,30.376,13.627,30.376,30.376S195.332,181.803,178.582,181.803z"/>
			<path d="M346.526,335.145c-21.234,0-38.509,17.274-38.509,38.508s17.275,38.508,38.509,38.508s38.508-17.274,38.508-38.508
				S367.76,335.145,346.526,335.145z M346.526,393.16c-10.757,0-19.509-8.751-19.509-19.508c0-10.757,8.752-19.508,19.509-19.508
				c10.757,0,19.508,8.751,19.508,19.508C366.034,384.409,357.283,393.16,346.526,393.16z"/>
			<path d="M454.602,392.956l-22.753-13.136c0.148-2.055,0.222-4.116,0.222-6.167c0-2.052-0.075-4.112-0.222-6.167l22.753-13.136
				c2.182-1.26,3.774-3.335,4.426-5.769c0.652-2.433,0.311-5.026-0.949-7.208l-27.822-48.188c-1.26-2.182-3.336-3.774-5.769-4.426
				c-2.433-0.652-5.026-0.312-7.208,0.949l-22.749,13.135c-3.413-2.319-6.982-4.384-10.684-6.181v-26.256c0-5.246-4.254-9.5-9.5-9.5
				h-55.643c-5.246,0-9.5,4.254-9.5,9.5v26.256c-3.702,1.797-7.271,3.862-10.684,6.181l-22.749-13.135
				c-2.181-1.261-4.774-1.603-7.208-0.949c-2.435,0.652-4.509,2.244-5.769,4.426l-27.821,48.188
				c-2.624,4.544-1.067,10.353,3.477,12.977l22.752,13.136c-0.148,2.055-0.222,4.116-0.222,6.167c0,2.052,0.074,4.112,0.222,6.167
				l-22.752,13.136c-4.543,2.623-6.101,8.433-3.477,12.977l27.821,48.188c1.26,2.182,3.335,3.774,5.769,4.426
				c2.432,0.653,5.026,0.312,7.208-0.949l22.749-13.135c3.413,2.319,6.982,4.384,10.684,6.181V476.9c0,5.246,4.254,9.5,9.5,9.5
				h55.643c5.246,0,9.5-4.254,9.5-9.5v-26.256c3.702-1.797,7.271-3.862,10.684-6.181l22.749,13.135
				c2.181,1.26,4.774,1.602,7.208,0.949c2.434-0.652,4.509-2.244,5.769-4.426l27.822-48.188c1.26-2.182,1.601-4.775,0.949-7.208
				C458.376,396.29,456.784,394.216,454.602,392.956z M418.553,436.393l-19.898-11.489c-3.383-1.952-7.619-1.636-10.674,0.801
				c-5.204,4.15-10.96,7.481-17.111,9.901c-3.634,1.428-6.023,4.935-6.023,8.84V467.4h-36.643v-22.954
				c0-3.904-2.389-7.411-6.023-8.84c-6.151-2.42-11.907-5.751-17.111-9.901c-3.055-2.438-7.291-2.753-10.674-0.801l-19.898,11.489
				l-18.321-31.734l19.89-11.483c3.379-1.95,5.221-5.769,4.646-9.627c-0.486-3.265-0.733-6.594-0.733-9.896s0.247-6.631,0.733-9.896
				c0.575-3.858-1.267-7.677-4.646-9.627l-19.89-11.484l18.321-31.734l19.898,11.489c3.384,1.953,7.62,1.637,10.674-0.801
				c5.204-4.15,10.96-7.481,17.111-9.901c3.634-1.428,6.023-4.935,6.023-8.84v-22.954h36.643v22.954c0,3.904,2.389,7.411,6.023,8.84
				c6.151,2.42,11.907,5.751,17.111,9.901c3.055,2.438,7.291,2.754,10.674,0.801l19.898-11.489l18.322,31.734l-19.891,11.484
				c-3.379,1.95-5.221,5.769-4.646,9.627c0.486,3.265,0.733,6.594,0.733,9.896s-0.247,6.631-0.733,9.896
				c-0.575,3.858,1.267,7.677,4.646,9.627l19.891,11.483L418.553,436.393z"/>
			<path d="M178.365,88.674c5.247,0,9.5-4.254,9.5-9.5c0-5.246-4.253-9.5-9.5-9.5c-45.258,0-82.078,36.82-82.078,82.078
				c0,5.246,4.253,9.5,9.5,9.5c5.246,0,9.5-4.253,9.5-9.5C115.287,116.971,143.584,88.674,178.365,88.674z"/>
			<path d="M231.993,89.616c-5.942-5.133-12.569-9.378-19.694-12.618c-4.778-2.173-10.409-0.059-12.58,4.717
				c-2.171,4.776-0.059,10.408,4.717,12.58c5.474,2.489,10.567,5.751,15.137,9.699c1.796,1.551,4.006,2.311,6.206,2.311
				c2.664,0,5.315-1.115,7.193-3.29C236.402,99.045,235.963,93.046,231.993,89.616z"/>
		</g>
	</g>
</g>
</svg>